<svg preserveAspectRatio="none" width="100%" height="100%" overflow="visible" style="display: block;" viewBox="0 0 94 74" fill="none" xmlns="http://www.w3.org/2000/svg">
<g id="ChatGPT Image Jun 8, 2026, 02_30_00 PM 1 [Vectorized]">
<path id="Vector" d="M25.5554 23.7541C25.3418 22.8282 25.4019 20.1993 26.1586 19.4902C28.2989 17.4843 31.6396 19.1493 34.0124 18.0738C34.672 17.7749 35.608 16.8501 36.2798 16.4858C37.6814 15.5021 39.1537 14.5414 40.5574 13.5627C41.8278 12.6769 42.9779 11.5618 44.4726 10.9203C45.4802 10.4879 45.9816 10.4342 47.0348 10.3745C49.8874 10.2126 51.7481 12.1865 53.9022 13.7183C55.3176 14.7247 56.8634 15.6987 58.2805 16.7298C58.7498 17.0712 60.4511 18.2721 60.9488 18.3724C62.0385 18.5918 63.9139 18.396 65.1242 18.4524C66.2976 18.507 67.1614 18.6174 68.0717 19.4995C68.91 20.3118 68.8214 22.4383 68.7719 23.6003C68.9356 24.181 69.9469 24.7539 70.4339 25.1065C72.5664 26.6503 74.9357 27.8209 75.4614 30.668C75.8407 32.7193 75.4564 34.7678 75.5807 36.8421C75.62 38.338 75.8093 42.6338 75.5857 43.7947C75.8607 43.9044 76.5614 43.9639 76.8814 44.0046C78.3071 44.1773 79.22 44.5027 80.4886 45.1299C82.8336 46.2892 84.7293 48.0112 85.8914 50.4016C87.7793 54.2858 87.78 58.8945 85.8857 62.8035C85.3071 63.8258 84.6321 64.9385 83.6514 65.6189C82.8464 66.9055 80.0871 68.3232 78.7014 68.8404L78.6143 68.8704C78.2871 68.9584 78.0371 69.0299 77.7171 69.1445C76.9471 69.3205 76.5779 69.4084 75.7864 69.4897C75.2021 69.545 74.2093 69.6596 73.6629 69.5312C71.6757 69.7208 70.6113 69.7394 68.603 69.7485L66.044 69.7175C61.3511 69.7941 56.6035 69.674 51.9138 69.7429C50.184 69.6638 48.1097 69.7044 46.3479 69.6905L33.1877 69.6064C31.3315 69.5915 29.3656 69.63 27.5271 69.5647C26.9545 69.6826 25.0317 69.5738 24.447 69.4282C24.0184 69.2813 23.5909 69.1307 23.1648 68.9764C22.9004 68.8169 21.9976 68.4298 21.6294 68.2466L21.2906 67.9596C21.0276 67.8472 20.5693 67.3933 20.3431 67.1828C17.9404 64.6949 18.4633 61.4622 18.4685 58.2407L18.4758 49.3306L18.4721 37.7788C18.4715 35.8573 18.4479 33.8794 18.4962 31.9601C18.5136 31.2703 18.8919 29.8571 19.2164 29.2331C20.2867 27.2725 22.4932 26.1379 24.2159 24.8384C24.5874 24.5582 25.316 24.1078 25.5554 23.7541Z" fill="var(--fill-0, #EBEBEB)"/>
<path id="Vector_2" d="M25.5554 23.7541C25.3418 22.8282 25.4019 20.1993 26.1586 19.4902C28.2989 17.4843 31.6396 19.1493 34.0124 18.0738C34.672 17.7749 35.608 16.8501 36.2798 16.4858C37.6814 15.5021 39.1537 14.5414 40.5574 13.5627C41.8278 12.6769 42.9779 11.5618 44.4726 10.9203C45.4802 10.4879 45.9816 10.4342 47.0348 10.3745C49.8874 10.2126 51.7481 12.1865 53.9022 13.7183C55.3176 14.7247 56.8634 15.6987 58.2805 16.7298C58.7498 17.0712 60.4511 18.2721 60.9488 18.3724C62.0385 18.5918 63.9139 18.396 65.1242 18.4524C66.2976 18.507 67.1614 18.6174 68.0717 19.4995C68.91 20.3118 68.8214 22.4383 68.7719 23.6003C68.4599 24.2902 68.3599 34.1587 68.5592 35.2716L68.5676 35.8016C68.0914 35.9786 67.3211 36.5234 66.8604 36.807C65.5088 37.6389 64.2646 38.5432 62.9728 39.4541C60.9299 40.8947 58.7064 42.086 56.6221 43.463C55.517 44.1932 54.4054 44.8937 53.3059 45.6467C51.7644 46.7025 50.0662 48.0088 48.3294 48.6956C47.5949 48.986 46.0376 48.769 45.3232 48.4417C43.5544 47.6312 41.8788 46.2991 40.2665 45.2075C37.3181 43.2114 34.2541 41.5274 31.3166 39.5208C30.0218 38.6364 28.7546 37.7103 27.4357 36.8589C26.8891 36.5061 26.2953 36.0668 25.7203 35.7869L25.7218 25.9225C25.7677 25.4744 25.713 24.1656 25.5554 23.7541Z" fill="var(--fill-0, #FDFDFD)"/>
<path id="Vector_3" d="M46.9563 12.3825C48.9325 11.8922 52.2522 15.0706 53.8549 16.1472C55.0744 16.9663 56.37 17.8072 57.5969 18.6244C54.4827 18.7667 50.4422 18.6632 47.2679 18.6616L39.5001 18.6432C38.9278 18.6401 37.1022 18.6941 36.6939 18.5898C36.7003 18.5876 36.8164 18.5497 36.8274 18.543C38.9665 17.2328 40.9804 15.672 43.0188 14.1903C44.2982 13.2602 45.3386 12.4863 46.9563 12.3825Z" fill="var(--fill-0, #D4D4D4)"/>
<path id="Vector_4" d="M36.465 36.6701C37.3891 36.5512 39.0327 36.6393 39.9934 36.6405L46.3227 36.6373L54.23 36.6433C55.8197 36.6375 57.4284 36.6187 59.0178 36.6379C59.2496 36.6616 59.6441 36.6598 59.8168 36.8328C60.0929 37.1093 60.0473 37.6224 59.7902 37.892C59.5505 38.1434 59.2721 38.1487 58.9464 38.1546C53.3719 38.2508 47.7475 38.1187 42.168 38.1634C39.9212 38.1814 37.5819 38.2063 35.3402 38.1367L35.2972 37.9716C35.1746 37.4956 35.0273 37.2364 35.2574 36.8397C35.5489 36.6423 36.0892 36.6811 36.465 36.6701Z" fill="var(--fill-0, #EDEDED)"/>
<path id="Vector_5" d="M41.2953 40.1424C45.3668 40.0529 49.4766 40.1868 53.553 40.1218C53.7202 40.1191 54.3733 40.1333 54.4713 40.2633C54.7955 40.6934 54.6889 41.4698 54.0546 41.5447C53.6417 41.604 53.1319 41.6025 52.6869 41.6095L43.8889 41.6068C42.6966 41.6056 41.5051 41.6414 40.3156 41.6409C39.6659 41.6406 39.2452 41.3269 39.2029 40.6557C39.189 40.4346 39.2531 40.4004 39.3854 40.2574C39.6852 40.1291 40.8978 40.1492 41.2953 40.1424Z" fill="var(--fill-0, #EDEDED)"/>
<path id="Vector_6" d="M62.1573 60.2927C62.1753 60.1036 61.8481 57.929 61.7865 57.7611L61.8424 57.7439C61.8989 57.8516 62.0328 58.1149 62.1146 58.2009C62.2128 58.3039 62.8939 58.117 63.0814 58.1529C63.0949 58.1531 63.2578 58.1537 63.2591 58.1565C63.4912 58.6453 63.3931 59.8771 63.7991 60.2234C64.8396 63.2918 66.5673 65.1694 69.4465 66.5978C72.3064 67.9865 75.5957 68.1653 78.5857 67.0945C80.07 66.5789 81.2843 65.8027 82.4729 64.776C82.9679 65.5546 82.785 64.9638 83.4679 65.3911C83.8279 65.2748 83.7357 65.017 84.1371 64.8634L84.1714 64.9164C83.9979 65.1286 83.6793 65.377 83.6514 65.6189C82.8464 66.9055 80.0871 68.3232 78.7014 68.8404L78.6143 68.8704C78.2871 68.9584 78.0371 69.0299 77.7171 69.1445C76.9471 69.3205 76.5779 69.4084 75.7864 69.4897C75.2021 69.545 74.2093 69.6596 73.6629 69.5312C73.4264 69.4637 72.0979 69.2589 71.7193 69.1831C69.6756 68.7736 68.7144 68.2531 66.9909 67.1932C64.7794 65.6183 63.2562 63.6112 62.3605 61.0269C62.2734 60.7754 62.2044 60.5564 62.1573 60.2927Z" fill="var(--fill-0, #717171)"/>
<path id="Vector_7" d="M63.3758 54.4481C63.4404 54.8602 63.6047 55.5424 63.5643 55.8958C63.5899 56.7518 63.6631 57.5865 63.4568 58.4175C63.4156 58.1108 63.3861 57.8441 63.3632 57.5355C63.2051 56.6445 63.3016 55.3542 63.3758 54.4481Z" fill="var(--fill-0, #9B9B9B)"/>
<path id="Vector_8" d="M53.2236 48.9591C54.7129 48.037 56.2232 46.9954 57.7065 46.0407L66.8878 40.1645C67.7759 39.5984 68.6557 39.0191 69.527 38.4269C70.3117 37.8905 71.575 36.8369 72.5207 36.8056C73.315 36.7899 73.6929 37.3313 73.6893 38.0862C73.68 39.9362 73.7964 42.0143 73.6793 43.8468C70.2484 44.1569 66.7204 45.6778 64.4632 48.3799C63.2729 49.8048 62.1246 52.3753 61.7999 54.1877C60.479 54.0278 54.8794 49.7672 53.2236 48.9591Z" fill="var(--fill-0, #F5F5F5)"/>
<path id="Vector_9" d="M25.7203 35.7869C25.3997 35.7067 22.8182 33.878 22.3631 33.5445C18.2503 30.5311 23.5678 27.678 25.7218 25.9225L25.7203 35.7869Z" fill="var(--fill-0, #D4D4D4)"/>
<path id="Vector_10" d="M68.5592 35.2716C68.6029 32.2605 68.5345 29.233 68.5759 26.2168C69.3829 26.7175 70.2925 27.4779 70.9756 27.96C74.6743 30.5697 73.595 32.6845 70.1761 34.6643C69.7412 34.9161 69.1029 35.5483 68.5676 35.8016L68.5592 35.2716Z" fill="var(--fill-0, #D4D4D4)"/>
<path id="Vector_11" d="M15.0197 8.49815C16.1041 8.04353 17.3281 8.11724 18.5277 7.89227C22.5124 7.10833 26.5082 6.384 30.514 5.71953C30.9882 5.64115 34.8051 4.92258 34.9544 4.98647C35.0011 5.39002 31.78 8.89879 31.2711 9.45567C30.1289 10.7054 26.7349 15.4432 25.4759 16.1138C24.839 15.9388 23.5131 14.6351 22.8739 14.1725C22.4993 14.4849 20.3424 15.8393 19.9278 15.8359C19.4084 15.3804 18.9986 11.661 18.7344 11.2109L18.7052 11.1622C17.7133 10.4349 15.7836 9.30478 15.0197 8.49815Z" fill="var(--fill-0, #EBEBEB)"/>
<path id="Vector_12" d="M30.945 6.72369C31.2833 6.5708 31.7168 6.35845 32.063 6.25205L32.1373 6.31071L32.2489 6.21573L32.1047 6.25054L32.0921 6.35183C31.7639 6.51556 31.4336 6.67461 31.101 6.82894L24.5276 10.4637C23.4873 11.0327 21.9506 11.7787 21.0193 12.4263C21.4287 12.8055 22.5641 13.7925 22.8739 14.1725C22.4993 14.4849 20.3424 15.8393 19.9278 15.8359C19.4084 15.3804 18.9986 11.661 18.7344 11.2109L18.7052 11.1622C19.3946 11.0047 20.3901 10.6017 21.0673 10.3492L25.4891 8.66241C27.4807 7.91807 28.8725 7.64014 30.945 6.72369Z" fill="var(--fill-0, #D4D4D4)"/>
<path id="Vector_13" d="M6.00075 23.5842C6.94399 23.9353 6.47352 24.8798 5.94434 25.3633C5.69987 25.3613 5.421 25.1761 5.39621 24.9134C5.34604 24.3819 5.69501 23.9714 6.00075 23.5842Z" fill="var(--fill-0, #EDEDED)"/>
<path id="Vector_14" d="M11.7228 17.0582C11.9768 17.0362 12.128 17.1005 12.2586 17.3128C12.2864 17.8085 11.7659 18.1816 11.3911 18.3991C11.0445 18.3874 10.905 18.4097 10.7159 18.0934C10.7078 17.6288 11.3694 17.2514 11.7228 17.0582Z" fill="var(--fill-0, #EDEDED)"/>
<path id="Vector_15" d="M7.45614 21.1395C7.74829 21.1898 7.66186 21.1362 7.84457 21.3108C8.06657 21.9413 7.70593 22.4715 7.18243 22.7905C6.90748 22.6365 6.79048 22.5235 6.71629 22.2165C6.76119 21.731 7.10962 21.4789 7.45614 21.1395Z" fill="var(--fill-0, #EDEDED)"/>
<path id="Vector_16" d="M14.2734 15.3924C14.4999 15.3908 14.6208 15.4085 14.8033 15.5438C14.9871 16.0793 14.248 16.5191 13.8337 16.6742C13.608 16.6527 13.4309 16.5631 13.3044 16.378C13.2991 15.8966 13.9003 15.5605 14.2734 15.3924Z" fill="var(--fill-0, #EDEDED)"/>
<path id="Vector_17" d="M8.27878 37.3849C8.70443 37.4576 9.24 37.9198 9.393 38.3423C9.36207 38.6123 9.36843 38.5346 9.14593 38.767C8.39457 38.7863 7.722 38.1446 8.27878 37.3849Z" fill="var(--fill-0, #EDEDED)"/>
<path id="Vector_18" d="M10.8426 39.3101C11.2428 39.4725 11.7544 39.8005 11.8739 40.2403C11.8211 40.53 11.8399 40.4427 11.6049 40.6799C11.1184 40.6089 10.5224 40.2487 10.4656 39.7107C10.5579 39.4326 10.5478 39.5074 10.8426 39.3101Z" fill="var(--fill-0, #EDEDED)"/>
<path id="Vector_19" d="M13.5889 40.8885C14.2235 40.9123 15.0701 41.3776 14.4579 42.1065C13.9617 42.0585 13.4679 41.9 13.3128 41.3698C13.3632 41.0665 13.3569 41.1487 13.5889 40.8885Z" fill="var(--fill-0, #EDEDED)"/>
<path id="Vector_20" d="M5.22311 26.5591C6.09591 26.7087 5.68969 27.7839 5.28276 28.2393C4.54056 27.8252 4.72124 27.0916 5.22311 26.5591Z" fill="var(--fill-0, #EDEDED)"/>
<path id="Vector_21" d="M16.7778 14.2315C17.007 14.2053 17.2504 14.2587 17.4047 14.4413C17.4935 14.9716 17.1306 15.1224 16.7125 15.3007C16.5471 15.3453 16.4609 15.3173 16.2941 15.2907C16.0889 15.1391 16.1412 15.2229 16.0928 14.9802C16.2302 14.5083 16.3464 14.4814 16.7778 14.2315Z" fill="var(--fill-0, #EDEDED)"/>
<path id="Vector_22" d="M5.37848 32.344C5.99788 32.7377 6.23762 33.4835 5.66736 34.0529C4.99834 33.8204 4.90851 32.8723 5.37848 32.344Z" fill="var(--fill-0, #EDEDED)"/>
<path id="Vector_23" d="M9.41193 19.0806C9.72278 19.0931 9.83443 19.162 9.87193 19.4521C9.69986 19.8877 9.43471 20.0289 9.055 20.2591C8.73636 20.2378 8.59793 20.2468 8.53057 19.9062C8.66657 19.4926 9.06036 19.2855 9.41193 19.0806Z" fill="var(--fill-0, #EDEDED)"/>
<path id="Vector_24" d="M6.51279 35.1431C7.09712 35.3984 7.47214 35.9925 7.18207 36.6167C6.45968 36.5156 6.09133 35.8104 6.51279 35.1431Z" fill="var(--fill-0, #EDEDED)"/>
<path id="Vector_25" d="M16.0278 42.0148C16.3904 41.9903 16.8751 42.2134 17.0674 42.5373C17.0826 42.8104 17.1011 42.7109 16.9203 42.9576C16.2578 43.0869 15.6456 42.7524 16.0278 42.0148Z" fill="var(--fill-0, #EDEDED)"/>
<path id="Vector_26" d="M4.89271 29.5871C5.69811 29.6918 5.58785 30.3732 5.33479 30.9358L5.10354 31.0064C4.61009 30.8373 4.83749 30.0159 4.89271 29.5871Z" fill="var(--fill-0, #EDEDED)"/>
<ellipse id="Ellipse 62" cx="74.5115" cy="57.1314" rx="13.7083" ry="13.7766" fill="var(--fill-0, #1B1B1B)"/>
<g id="Frame">
<path id="Vector_27" d="M80.3262 53.564L72.9916 60.9351L69.6577 57.5846" stroke="var(--stroke-0, white)" stroke-width="3" stroke-linecap="round" stroke-linejoin="round"/>
</g>
</g>
</svg>
