<svg preserveAspectRatio="none" width="100%" height="100%" overflow="visible" style="display: block;" viewBox="0 0 15.6263 15.945" fill="none" xmlns="http://www.w3.org/2000/svg">
<g id="SVGRepo_iconCarrier">
<path id="Vector" d="M15.6261 8.14968C15.6261 7.49417 15.5729 7.01582 15.4578 6.51976H7.97252V9.47841H12.3662C12.2777 10.2137 11.7993 11.321 10.7363 12.065L10.7214 12.1641L13.0881 13.9976L13.2521 14.0139C14.758 12.6231 15.6261 10.5769 15.6261 8.14968Z" fill="var(--fill-0, #4285F4)"/>
<path id="Vector_2" d="M7.97252 15.945C10.1251 15.945 11.9322 15.2363 13.2521 14.0139L10.7363 12.065C10.0631 12.5345 9.15951 12.8623 7.97252 12.8623C5.86424 12.8623 4.07487 11.4716 3.43701 9.54931L3.34351 9.55725L0.882565 11.4618L0.850382 11.5513C2.1614 14.1556 4.85435 15.945 7.97252 15.945Z" fill="var(--fill-0, #34A853)"/>
<path id="Vector_3" d="M3.43701 9.54931C3.2687 9.05325 3.1713 8.52171 3.1713 7.97252C3.1713 7.42327 3.2687 6.89179 3.42815 6.39573L3.42369 6.29008L0.931908 4.35493L0.850382 4.39371C0.310046 5.47444 0 6.68806 0 7.97252C0 9.25698 0.310046 10.4705 0.850382 11.5513L3.43701 9.54931Z" fill="var(--fill-0, #FBBC05)"/>
<path id="Vector_4" d="M7.97252 3.08269C9.46956 3.08269 10.4794 3.72934 11.0552 4.26974L13.3052 2.07286C11.9234 0.788397 10.1251 0 7.97252 0C4.85435 0 2.1614 1.78937 0.850382 4.39371L3.42815 6.39573C4.07487 4.47347 5.86424 3.08269 7.97252 3.08269Z" fill="var(--fill-0, #EB4335)"/>
</g>
</svg>
